REM DIRINDEX 1\2\5,1\2\6,1\2\7,1\2\8,1\3\9,1\3\10,1\3\11,1\4\12,1\4\13,1\4\14,1\4\15,1\4\16
REM DIRNAME folder01,folder02,folder03,folder04,folder05,folder06,folder07,folder08,folder09,folder10,folder11,folder12,folder13,folder14,folder15,folder16
TITLE ""
FILE "1200_sec03_0729_0737.mp3" MP3
  TRACK 01 AUDIO
    TITLE "0:"
    INDEX 01 00:00:00
  TRACK 02 AUDIO
    TITLE "12:cjc034_06575"
    INDEX 01 00:00:19
  TRACK 03 AUDIO
    TITLE "0:"
    INDEX 01 00:01:30
  TRACK 04 AUDIO
    TITLE "13:cjc034_06576"
    INDEX 01 00:01:66
  TRACK 05 AUDIO
    TITLE "0:"
    INDEX 01 00:02:55
  TRACK 06 AUDIO
    TITLE "14:cjc034_06577"
    INDEX 01 00:03:14
  TRACK 07 AUDIO
    TITLE "0:"
    INDEX 01 00:04:25
  TRACK 08 AUDIO
    TITLE "15:cjc034_06578"
    INDEX 01 00:04:62
  TRACK 09 AUDIO
    TITLE "0:"
    INDEX 01 00:07:70
  TRACK 10 AUDIO
    TITLE "12:cjc034_06579"
    INDEX 01 00:09:26
  TRACK 11 AUDIO
    TITLE "0:"
    INDEX 01 00:10:37
  TRACK 12 AUDIO
    TITLE "13:cjc034_06580"
    INDEX 01 00:10:74
  TRACK 13 AUDIO
    TITLE "0:"
    INDEX 01 00:12:12
  TRACK 14 AUDIO
    TITLE "14:cjc034_06581"
    INDEX 01 00:12:46
  TRACK 15 AUDIO
    TITLE "0:"
    INDEX 01 00:13:55
  TRACK 16 AUDIO
    TITLE "15:cjc034_06582"
    INDEX 01 00:14:15
  TRACK 17 AUDIO
    TITLE "0:"
    INDEX 01 00:16:61
  TRACK 18 AUDIO
    TITLE "12:cjc034_06583"
    INDEX 01 00:18:21
  TRACK 19 AUDIO
    TITLE "0:"
    INDEX 01 00:19:36
  TRACK 20 AUDIO
    TITLE "13:cjc034_06584"
    INDEX 01 00:19:69
  TRACK 21 AUDIO
    TITLE "0:"
    INDEX 01 00:22:52
  TRACK 22 AUDIO
    TITLE "14:cjc034_06585"
    INDEX 01 00:23:14
  TRACK 23 AUDIO
    TITLE "0:"
    INDEX 01 00:24:31
  TRACK 24 AUDIO
    TITLE "15:cjc034_06586"
    INDEX 01 00:24:63
  TRACK 25 AUDIO
    TITLE "0:"
    INDEX 01 00:29:46
  TRACK 26 AUDIO
    TITLE "12:cjc034_06587"
    INDEX 01 00:31:02
  TRACK 27 AUDIO
    TITLE "0:"
    INDEX 01 00:32:13
  TRACK 28 AUDIO
    TITLE "13:cjc034_06588"
    INDEX 01 00:32:48
  TRACK 29 AUDIO
    TITLE "0:"
    INDEX 01 00:35:61
  TRACK 30 AUDIO
    TITLE "14:cjc034_06589"
    INDEX 01 00:36:17
  TRACK 31 AUDIO
    TITLE "0:"
    INDEX 01 00:37:28
  TRACK 32 AUDIO
    TITLE "15:cjc034_06590"
    INDEX 01 00:37:63
  TRACK 33 AUDIO
    TITLE "0:"
    INDEX 01 00:42:33
  TRACK 34 AUDIO
    TITLE "16:cjc034_06591"
    INDEX 01 00:43:68
  TRACK 35 AUDIO
    TITLE "0:"
    INDEX 01 00:48:46
  TRACK 36 AUDIO
    TITLE "12:cjc034_06592"
    INDEX 01 00:49:59
  TRACK 37 AUDIO
    TITLE "0:"
    INDEX 01 00:50:64
  TRACK 38 AUDIO
    TITLE "13:cjc034_06593"
    INDEX 01 00:51:22
  TRACK 39 AUDIO
    TITLE "0:"
    INDEX 01 00:53:09
  TRACK 40 AUDIO
    TITLE "14:cjc034_06594"
    INDEX 01 00:53:57
  TRACK 41 AUDIO
    TITLE "0:"
    INDEX 01 00:54:60
  TRACK 42 AUDIO
    TITLE "15:cjc034_06595"
    INDEX 01 00:55:28
  TRACK 43 AUDIO
    TITLE "0:"
    INDEX 01 00:58:73
  TRACK 44 AUDIO
    TITLE "12:cjc034_06596"
    INDEX 01 01:00:33
  TRACK 45 AUDIO
    TITLE "0:"
    INDEX 01 01:01:42
  TRACK 46 AUDIO
    TITLE "13:cjc034_06597"
    INDEX 01 01:02:01
  TRACK 47 AUDIO
    TITLE "0:"
    INDEX 01 01:03:00
  TRACK 48 AUDIO
    TITLE "14:cjc034_06598"
    INDEX 01 01:03:39
  TRACK 49 AUDIO
    TITLE "0:"
    INDEX 01 01:04:47
  TRACK 50 AUDIO
    TITLE "15:cjc034_06599"
    INDEX 01 01:05:05
  TRACK 51 AUDIO
    TITLE "0:"
    INDEX 01 01:08:42
  TRACK 52 AUDIO
    TITLE "12:cjc034_06600"
    INDEX 01 01:10:02
  TRACK 53 AUDIO
    TITLE "0:"
    INDEX 01 01:11:07
  TRACK 54 AUDIO
    TITLE "13:cjc034_06601"
    INDEX 01 01:11:43
  TRACK 55 AUDIO
    TITLE "0:"
    INDEX 01 01:13:40
  TRACK 56 AUDIO
    TITLE "14:cjc034_06602"
    INDEX 01 01:14:04
  TRACK 57 AUDIO
    TITLE "0:"
    INDEX 01 01:15:07
  TRACK 58 AUDIO
    TITLE "15:cjc034_06603"
    INDEX 01 01:15:46
  TRACK 59 AUDIO
    TITLE "0:"
    INDEX 01 01:19:36
  TRACK 60 AUDIO
    TITLE "12:cjc034_06604"
    INDEX 01 01:20:69
  TRACK 61 AUDIO
    TITLE "0:"
    INDEX 01 01:21:74
  TRACK 62 AUDIO
    TITLE "13:cjc034_06605"
    INDEX 01 01:22:31
  TRACK 63 AUDIO
    TITLE "0:"
    INDEX 01 01:23:20
  TRACK 64 AUDIO
    TITLE "14:cjc034_06606"
    INDEX 01 01:23:52
  TRACK 65 AUDIO
    TITLE "0:"
    INDEX 01 01:24:55
  TRACK 66 AUDIO
    TITLE "15:cjc034_06607"
    INDEX 01 01:25:17
  TRACK 67 AUDIO
    TITLE "0:"
    INDEX 01 01:28:55
  TRACK 68 AUDIO
    TITLE "12:cjc034_06608"
    INDEX 01 01:30:15
  TRACK 69 AUDIO
    TITLE "0:"
    INDEX 01 01:31:22
  TRACK 70 AUDIO
    TITLE "13:cjc034_06609"
    INDEX 01 01:31:57
  TRACK 71 AUDIO
    TITLE "0:"
    INDEX 01 01:32:45
  TRACK 72 AUDIO
    TITLE "14:cjc034_06610"
    INDEX 01 01:33:05
  TRACK 73 AUDIO
    TITLE "0:"
    INDEX 01 01:34:14
  TRACK 74 AUDIO
    TITLE "15:cjc034_06611"
    INDEX 01 01:34:50
  TRACK 75 AUDIO
    TITLE "0:"
    INDEX 01 01:38:04
